<svg width="169" height="47" viewBox="0 0 169 47" fill="none" xmlns="http://www.w3.org/2000/svg">
<path d="M55.099 12.4062V20.0031H45.273V12.4062H41.75V30.8292H45.273V22.9303H55.099V30.8292H58.6459V12.4062H55.099ZM77.0277 23.8828C77.0277 19.492 73.9361 16.6112 69.7182 16.6112C65.4043 16.6112 62.2168 19.6081 62.2168 23.8131C62.2168 27.9949 65.3564 31.0151 70.2214 31.0151C72.7139 31.0151 74.751 30.2252 76.0691 28.7151L74.2477 26.6939C73.2172 27.7161 71.923 28.2272 70.3173 28.2272C67.7769 28.2272 66.0274 26.903 65.62 24.8586H76.9798C77.0038 24.5333 77.0277 24.1384 77.0277 23.8828ZM69.7182 19.2597C71.923 19.2597 73.5287 20.6536 73.8163 22.6748H65.5721C65.9076 20.6071 67.5133 19.2597 69.7182 19.2597ZM85.4158 16.6112C83.0911 16.6112 80.8383 17.192 79.2805 18.3536L80.6226 20.7465C81.7011 19.8869 83.3787 19.3526 85.0084 19.3526C87.4289 19.3526 88.6272 20.491 88.6272 22.4192V22.6283H84.8885C80.4788 22.6283 78.8491 24.4636 78.8491 26.8101C78.8491 29.2494 80.9342 31.0151 84.2654 31.0151C86.4224 31.0151 88.0041 30.3181 88.8189 29.11V30.8292H92.0304V22.5818C92.0304 18.5395 89.6098 16.6112 85.4158 16.6112ZM84.9604 28.6222C83.2349 28.6222 82.2044 27.8555 82.2044 26.6707C82.2044 25.6485 82.8275 24.8121 85.1282 24.8121H88.6272V26.4384C88.052 27.8787 86.6141 28.6222 84.9604 28.6222ZM96.3682 30.8292H99.7474V11.3143H96.3682V30.8292ZM112.665 27.7161C112.162 28.1111 111.467 28.2969 110.772 28.2969C109.478 28.2969 108.759 27.5535 108.759 26.206V19.5152H112.641V16.89H108.759V13.684H105.379V16.89H102.983V19.5152H105.379V26.2757C105.379 29.3888 107.201 31.0151 110.364 31.0151C111.587 31.0151 112.809 30.6898 113.624 30.0625L112.665 27.7161ZM124.648 16.6112C122.635 16.6112 120.933 17.2617 119.807 18.4001V11.3143H116.428V30.8292H119.807V23.7202C119.807 20.9091 121.436 19.492 123.857 19.492C126.014 19.492 127.308 20.7 127.308 23.1859V30.8292H130.687V22.7677C130.687 18.5395 128.123 16.6112 124.648 16.6112ZM141.232 31.0847C146.433 31.0847 148.901 28.5757 148.901 25.602C148.901 18.8647 137.637 21.4202 137.637 17.494C137.637 16.1001 138.836 14.985 141.76 14.985C143.413 14.985 145.306 15.4728 147.008 16.4254L148.11 13.7769C146.457 12.7315 144.084 12.1507 141.783 12.1507C136.583 12.1507 134.138 14.683 134.138 17.6567C134.138 24.4869 145.426 21.8849 145.426 25.8576C145.426 27.2282 144.18 28.2504 141.232 28.2504C138.884 28.2504 136.463 27.4141 134.953 26.2293L133.731 28.8777C135.313 30.2019 138.26 31.0847 141.232 31.0847ZM162.13 16.7738L157.529 27.1585L152.976 16.7738H149.453L155.78 30.8757L155.516 31.4332C154.869 32.8271 154.174 33.3847 152.976 33.3847C152.065 33.3847 151.13 33.013 150.483 32.409L149.117 34.8251C150.052 35.6382 151.562 36.1261 152.999 36.1261C155.42 36.1261 157.265 35.1503 158.584 31.9676L165.39 16.7738H162.13Z" fill="#CB1B5B"/>
<path d="M34.0085 18.9579C33.7449 18.7023 33.5052 18.47 33.2656 18.3074C33.0259 18.1215 32.7862 17.9589 32.5226 17.8427C32.283 17.7266 32.0193 17.6104 31.7078 17.5407C31.54 17.4943 31.3723 17.4943 31.2285 17.4478C31.0367 17.4013 30.869 17.3781 30.6772 17.3316L30.6533 17.3084C30.5574 17.2852 30.5095 17.1922 30.5335 17.0993C30.5335 17.0529 30.5814 17.0064 30.6053 16.9832C30.7731 16.8902 30.9648 16.7973 31.1566 16.7276C31.3483 16.6811 31.54 16.6114 31.7557 16.6114C32.1871 16.565 32.6424 16.6579 33.0259 16.8438C33.4333 17.0064 33.7928 17.3316 34.0085 17.6801C34.2482 18.0286 34.368 18.4235 34.344 18.865C34.344 18.9579 34.2482 19.0276 34.1523 19.0276C34.1044 19.0276 34.0564 19.0043 34.0325 18.9811L34.0085 18.9579Z" fill="#CB1B5B"/>
<path fill-rule="evenodd" clip-rule="evenodd" d="M25.5953 6.57543C24.0375 6.64513 22.8392 7.94612 22.9351 9.43296L24.1094 31.3407C24.2053 32.8276 25.5234 33.9892 27.0812 33.9195C28.615 33.8498 29.8133 32.5488 29.7414 31.0387L28.567 9.15418C28.4712 7.66733 27.1531 6.4825 25.5953 6.57543Z" fill="#CB1B5B"/>
<path fill-rule="evenodd" clip-rule="evenodd" d="M11.6748 13.1729C10.117 13.1032 8.77492 14.2648 8.70303 15.7749L7.88819 31.0615C7.79232 32.5484 8.99062 33.8494 10.5484 33.9191C12.0822 34.012 13.4243 32.8504 13.4962 31.3403L14.335 16.0537C14.4069 14.5436 13.2086 13.2658 11.6748 13.1729Z" fill="#CB1B5B"/>
<path d="M23.6797 23.255C24.7102 22.8369 25.7408 22.349 26.6994 21.7914C27.5622 21.2803 28.377 20.6995 29.1439 20.0723L29.3117 23.046C29.0001 23.348 28.6646 23.65 28.3291 23.9288C26.987 25.0207 25.4771 25.9035 23.8474 26.5308L23.6797 23.255Z" fill="#A30C43"/>
<path d="M8.31567 23.0234C9.29827 23.4416 10.3288 23.7901 11.3593 24.0456C12.1981 24.2547 13.0369 24.3941 13.8757 24.4871L13.708 27.5072C12.6056 27.2981 11.5031 26.9729 10.4726 26.5547C9.68172 26.2295 8.91482 25.8345 8.17188 25.3931L8.31567 23.0234Z" fill="#A30C43"/>
<path d="M3.95555 21.4207C6.25627 23.1863 8.77268 24.3479 11.361 24.9752C13.9733 25.6257 16.6574 25.7186 19.2697 25.3469C21.882 24.9519 24.4224 24.0924 26.6991 22.7217C28.9999 21.3742 31.013 19.5389 32.6906 17.1925C32.7625 17.0995 32.8823 17.0763 32.9782 17.146C33.0501 17.1925 33.098 17.2854 33.0741 17.3551C32.5228 20.2358 30.7014 22.9075 28.3288 24.859C25.9083 26.8337 22.8886 28.1115 19.773 28.5761C16.6574 29.0408 13.3741 28.6923 10.4743 27.5075C7.59836 26.3226 5.05798 24.2782 3.64399 21.6995C3.57209 21.5833 3.62003 21.4671 3.71589 21.3974C3.81175 21.3742 3.88365 21.3742 3.95555 21.4207Z" fill="#CB1B5B"/>
</svg>
