<svg width="191" height="53" viewBox="0 0 191 53" fill="none" xmlns="http://www.w3.org/2000/svg">
<path d="M62.2742 14.7109V23.2237H51.1691V14.7109H47.1875V35.3551H51.1691V26.5039H62.2742V35.3551H66.2829V14.7109H62.2742ZM87.0576 27.5712C87.0576 22.651 83.5636 19.4229 78.7965 19.4229C73.9211 19.4229 70.3187 22.7811 70.3187 27.4931C70.3187 32.1791 73.8669 35.5634 79.3653 35.5634C82.1822 35.5634 84.4845 34.6783 85.9742 32.9861L83.9157 30.7212C82.751 31.8667 81.2884 32.4394 79.4736 32.4394C76.6025 32.4394 74.6253 30.9555 74.1648 28.6646H87.0034C87.0305 28.3002 87.0576 27.8576 87.0576 27.5712ZM78.7965 22.3906C81.2884 22.3906 83.1031 23.9526 83.4281 26.2175H74.1107C74.4899 23.9006 76.3046 22.3906 78.7965 22.3906ZM96.5376 19.4229C93.9103 19.4229 91.3642 20.0737 89.6037 21.3753L91.1205 24.0568C92.3393 23.0935 94.2353 22.4948 96.0771 22.4948C98.8128 22.4948 100.167 23.7704 100.167 25.9311V26.1654H95.9417C90.9579 26.1654 89.1161 28.2221 89.1161 30.8514C89.1161 33.5849 91.4726 35.5634 95.2375 35.5634C97.6752 35.5634 99.4628 34.7824 100.384 33.4287V35.3551H104.013V26.1134C104.013 21.5836 101.278 19.4229 96.5376 19.4229ZM96.023 32.882C94.0728 32.882 92.9081 32.0229 92.9081 30.6952C92.9081 29.5497 93.6123 28.6126 96.2126 28.6126H100.167V30.4349C99.517 32.0489 97.8919 32.882 96.023 32.882ZM108.916 35.3551H112.735V13.4873H108.916V35.3551ZM127.334 31.8667C126.765 32.3093 125.98 32.5175 125.194 32.5175C123.732 32.5175 122.919 31.6845 122.919 30.1745V22.677H127.307V19.7353H122.919V16.1427H119.1V19.7353H116.391V22.677H119.1V30.2526C119.1 33.7411 121.158 35.5634 124.734 35.5634C126.115 35.5634 127.497 35.1989 128.417 34.496L127.334 31.8667ZM140.877 19.4229C138.602 19.4229 136.679 20.1518 135.406 21.4274V13.4873H131.586V35.3551H135.406V27.389C135.406 24.239 137.247 22.651 139.983 22.651C142.421 22.651 143.883 24.0047 143.883 26.7902V35.3551H147.702V26.3216C147.702 21.5836 144.804 19.4229 140.877 19.4229ZM159.62 35.6415C165.498 35.6415 168.288 32.8299 168.288 29.4977C168.288 21.9481 155.557 24.8117 155.557 20.4121C155.557 18.8501 156.912 17.6005 160.216 17.6005C162.085 17.6005 164.225 18.1472 166.148 19.2146L167.394 16.2468C165.525 15.0753 162.843 14.4245 160.243 14.4245C154.365 14.4245 151.603 17.2621 151.603 20.5943C151.603 28.2481 164.36 25.3324 164.36 29.784C164.36 31.32 162.952 32.4655 159.62 32.4655C156.966 32.4655 154.23 31.5283 152.524 30.2006L151.142 33.1684C152.93 34.6522 156.261 35.6415 159.62 35.6415ZM183.239 19.6051L178.038 31.2419L172.892 19.6051H168.91L176.061 35.4072L175.763 36.032C175.032 37.594 174.246 38.2188 172.892 38.2188C171.863 38.2188 170.806 37.8022 170.075 37.1254L168.531 39.8328C169.588 40.744 171.294 41.2907 172.919 41.2907C175.655 41.2907 177.74 40.1973 179.23 36.6308L186.922 19.6051H183.239Z" fill="white"/>
<path d="M26.7656 26.8683C27.9303 26.3997 29.095 25.853 30.1784 25.2282C31.1535 24.6555 32.0744 24.0047 32.9412 23.3018L33.1308 26.634C32.7786 26.9724 32.3994 27.3109 32.0202 27.6233C30.5034 28.8468 28.797 29.8361 26.9552 30.539L26.7656 26.8683Z" fill="#A30C43"/>
<path d="M9.4008 26.6105C10.5113 27.0791 11.676 27.4696 12.8407 27.7559C13.7887 27.9902 14.7367 28.1464 15.6847 28.2506L15.4951 31.6349C14.2491 31.4006 13.0032 31.0361 11.8385 30.5675C10.9447 30.203 10.0779 29.7605 9.23828 29.2659L9.4008 26.6105Z" fill="#A30C43"/>
<path fill-rule="evenodd" clip-rule="evenodd" d="M28.9306 8.17956C27.17 8.25766 25.8157 9.71552 25.924 11.3816L27.2512 35.9309C27.3596 37.597 28.8493 38.8987 30.6099 38.8206C32.3433 38.7425 33.6976 37.2846 33.6164 35.5924L32.2892 11.0692C32.1808 9.40312 30.6911 8.07543 28.9306 8.17956Z" fill="#CB1B5B"/>
<path fill-rule="evenodd" clip-rule="evenodd" d="M13.1997 15.5756C11.4391 15.4975 9.92231 16.7992 9.84105 18.4913L8.92014 35.6211C8.81179 37.2872 10.1661 38.7451 11.9266 38.8232C13.6601 38.9273 15.1769 37.6257 15.2582 35.9335L16.2062 18.8037C16.2874 17.1116 14.9332 15.6797 13.1997 15.5756Z" fill="#CB1B5B"/>
<path d="M4.47327 24.8188C7.07349 26.7973 9.91749 28.099 12.8427 28.8019C15.7951 29.5308 18.8287 29.6349 21.781 29.2184C24.7333 28.7758 27.6044 27.8126 30.1776 26.2766C32.7778 24.7667 35.053 22.7101 36.949 20.0808C37.0302 19.9766 37.1657 19.9506 37.274 20.0287C37.3553 20.0808 37.4094 20.1849 37.3824 20.263C36.7594 23.4911 34.7009 26.4849 32.0194 28.6717C29.2837 30.8845 25.8709 32.3163 22.3498 32.837C18.8287 33.3577 15.1179 32.9672 11.8406 31.6395C8.59029 30.3118 5.71921 28.0209 4.12115 25.1312C4.0399 25.001 4.09407 24.8708 4.20241 24.7928C4.31075 24.7667 4.39201 24.7667 4.47327 24.8188Z" fill="#CB1B5B"/>
<path d="M38.446 22.0567C38.1481 21.7703 37.8772 21.51 37.6064 21.3277C37.3355 21.1195 37.0647 20.9373 36.7667 20.8071C36.4959 20.6769 36.1979 20.5468 35.8458 20.4687C35.6562 20.4166 35.4666 20.4166 35.3041 20.3645C35.0874 20.3125 34.8978 20.2864 34.6811 20.2344L34.654 20.2083C34.5457 20.1823 34.4915 20.0782 34.5186 19.974C34.5186 19.922 34.5728 19.8699 34.5999 19.8439C34.7895 19.7397 35.0062 19.6356 35.2228 19.5575C35.4395 19.5054 35.6562 19.4273 35.9 19.4273C36.3875 19.3753 36.9022 19.4794 37.3355 19.6877C37.796 19.8699 38.2023 20.2344 38.446 20.6249C38.7169 21.0154 38.8523 21.4579 38.8252 21.9525C38.8252 22.0567 38.7169 22.1348 38.6086 22.1348C38.5544 22.1348 38.5002 22.1087 38.4731 22.0827L38.446 22.0567Z" fill="white"/>
<path fill-rule="evenodd" clip-rule="evenodd" d="M28.9345 8.17956C27.1739 8.25766 25.8196 9.71552 25.9279 11.3816L27.2551 35.9309C27.3635 37.597 28.8532 38.8987 30.6138 38.8206C32.3473 38.7425 33.7015 37.2846 33.6203 35.5924L32.2931 11.0692C32.1847 9.40312 30.695 8.07543 28.9345 8.17956Z" fill="white"/>
<path fill-rule="evenodd" clip-rule="evenodd" d="M13.1997 15.5756C11.4391 15.4975 9.92231 16.7992 9.84105 18.4913L8.92014 35.6211C8.81179 37.2872 10.1661 38.7451 11.9266 38.8232C13.6601 38.9273 15.1769 37.6257 15.2582 35.9335L16.2062 18.8037C16.2874 17.1116 14.9332 15.6797 13.1997 15.5756Z" fill="white"/>
<path d="M4.47717 24.8188C7.0774 26.7973 9.92139 28.099 12.8466 28.8019C15.799 29.5308 18.8326 29.6349 21.7849 29.2184C24.7373 28.7758 27.6083 27.8126 30.1815 26.2766C32.7817 24.7667 35.0569 22.7101 36.9529 20.0808C37.0341 19.9766 37.1696 19.9506 37.2779 20.0287C37.3592 20.0808 37.4133 20.1849 37.3863 20.263C36.7633 23.4911 34.7048 26.4849 32.0233 28.6717C29.2876 30.8845 25.8749 32.3163 22.3537 32.837C18.8326 33.3577 15.1218 32.9672 11.8445 31.6395C8.5942 30.3118 5.72312 28.0209 4.12506 25.1312C4.0438 25.001 4.09798 24.8708 4.20632 24.7928C4.31466 24.7667 4.39592 24.7667 4.47717 24.8188Z" fill="white"/>
</svg>
