 <svg
            className="h-5 w-5"
            width="20"
            height="20"
            viewBox="0 0 20 20"
            fill="none"
            xmlns="http://www.w3.org/2000/svg"
          >
            <path
              d="M9.85742 0.25C4.48133 0.25 0.107422 4.62391 0.107422 10C0.107422 15.3761 4.48133 19.75 9.85742 19.75C15.2335 19.75 19.6074 15.3761 19.6074 10C19.6074 4.62391 15.2335 0.25 9.85742 0.25ZM13.6074 10.75H10.6074V13.75C10.6074 13.9489 10.5284 14.1397 10.3878 14.2803C10.2471 14.421 10.0563 14.5 9.85742 14.5C9.65851 14.5 9.46774 14.421 9.32709 14.2803C9.18644 14.1397 9.10742 13.9489 9.10742 13.75V10.75H6.10742C5.90851 10.75 5.71774 10.671 5.57709 10.5303C5.43644 10.3897 5.35742 10.1989 5.35742 10C5.35742 9.80109 5.43644 9.61032 5.57709 9.46967C5.71774 9.32902 5.90851 9.25 6.10742 9.25H9.10742V6.25C9.10742 6.05109 9.18644 5.86032 9.32709 5.71967C9.46774 5.57902 9.65851 5.5 9.85742 5.5C10.0563 5.5 10.2471 5.57902 10.3878 5.71967C10.5284 5.86032 10.6074 6.05109 10.6074 6.25V9.25H13.6074C13.8063 9.25 13.9971 9.32902 14.1378 9.46967C14.2784 9.61032 14.3574 9.80109 14.3574 10C14.3574 10.1989 14.2784 10.3897 14.1378 10.5303C13.9971 10.671 13.8063 10.75 13.6074 10.75Z"
              fill="white"
            />
          </svg>