   <svg
          width="18"
          height="14"
          viewBox="0 0 18 14"
          fill="none"
          xmlns="http://www.w3.org/2000/svg"
          className="ml-2"
        >
          <path
            fillRule="evenodd"
            clipRule="evenodd"
            d="M11.9824 0.757568C10.4779 0.757568 9.2127 1.83595 8.9209 3.25757H0.732422C0.387247 3.25757 0.107422 3.53739 0.107422 3.88257C0.107422 4.22774 0.387247 4.50757 0.732422 4.50757H8.9209C9.2127 5.92919 10.4779 7.00757 11.9824 7.00757C13.4869 7.00757 14.7521 5.92919 15.0439 4.50757H16.9824C17.3276 4.50757 17.6074 4.22774 17.6074 3.88257C17.6074 3.53739 17.3276 3.25757 16.9824 3.25757H15.0439C14.7521 1.83595 13.4869 0.757568 11.9824 0.757568ZM11.9824 2.00757C13.0253 2.00757 13.8574 2.83965 13.8574 3.88257C13.8574 4.92549 13.0253 5.75757 11.9824 5.75757C10.9395 5.75757 10.1074 4.92549 10.1074 3.88257C10.1074 2.83965 10.9395 2.00757 11.9824 2.00757Z"
            fill="#4D4D4D"
          />
          <path
            fillRule="evenodd"
            clipRule="evenodd"
            d="M5.73242 7.00757C4.22793 7.00757 2.9627 8.08595 2.6709 9.50757H0.732422C0.387247 9.50757 0.107422 9.78739 0.107422 10.1326C0.107422 10.4777 0.387247 10.7576 0.732422 10.7576H2.6709C2.9627 12.1792 4.22793 13.2576 5.73242 13.2576C7.23692 13.2576 8.50214 12.1792 8.79395 10.7576H16.9824C17.3276 10.7576 17.6074 10.4777 17.6074 10.1326C17.6074 9.78739 17.3276 9.50757 16.9824 9.50757H8.79395C8.50214 8.08595 7.23692 7.00757 5.73242 7.00757ZM5.73242 8.25757C6.77534 8.25757 7.60742 9.08965 7.60742 10.1326C7.60742 11.1755 6.77534 12.0076 5.73242 12.0076C4.6895 12.0076 3.85742 11.1755 3.85742 10.1326C3.85742 9.08965 4.6895 8.25757 5.73242 8.25757Z"
            fill="#4D4D4D"
          />
        </svg>