<svg width="38" height="36" viewBox="0 0 38 36" fill="none" xmlns="http://www.w3.org/2000/svg">
<path d="M37.5476 13.0226V28.5821C37.6609 29.5534 37.5529 30.5377 37.2318 31.4613C36.9106 32.3849 36.3846 33.2238 35.6932 33.9153C35.0018 34.6067 34.1628 35.1327 33.2392 35.4539C32.3156 35.775 31.3313 35.883 30.3601 35.7696H7.36006C6.38881 35.883 5.40451 35.775 4.48091 35.4539C3.55731 35.1327 2.71836 34.6067 2.02693 33.9153C1.33549 33.2238 0.809498 32.3849 0.488356 31.4613C0.167214 30.5377 0.0592524 29.5534 0.17256 28.5821V9.41548C0.0592524 8.44423 0.167214 7.45993 0.488356 6.53633C0.809498 5.61273 1.33549 4.77378 2.02693 4.08235C2.71836 3.39091 3.55731 2.86492 4.48091 2.54378C5.40451 2.22263 6.38881 2.11467 7.36006 2.22798H24.2267C24.3115 2.2302 24.3948 2.25116 24.4706 2.28936C24.5463 2.32755 24.6127 2.38204 24.6649 2.44891C24.7171 2.51578 24.7539 2.59337 24.7726 2.67613C24.7912 2.75888 24.7914 2.84475 24.773 2.92756C24.3208 5.16705 24.7756 7.49448 26.0376 9.39899C27.2996 11.3035 29.2657 12.6295 31.5043 13.0859C33.2761 13.4401 35.1145 13.2289 36.7598 12.4821C36.8475 12.4472 36.9425 12.4344 37.0364 12.4449C37.1302 12.4553 37.22 12.4888 37.2979 12.5422C37.3758 12.5956 37.4393 12.6674 37.4828 12.7512C37.5264 12.835 37.5486 12.9282 37.5476 13.0226Z" fill="#FAE8EF"/>
<path d="M34.5032 23.1437L25.9702 14.6107C25.6088 14.2507 25.1195 14.0486 24.6094 14.0486C24.0993 14.0486 23.6099 14.2507 23.2485 14.6107L13.7802 24.0791C13.6011 24.2547 13.3602 24.353 13.1094 24.353C12.8585 24.353 12.6177 24.2547 12.4385 24.0791L10.6369 22.2774C10.2755 21.9174 9.78616 21.7153 9.27604 21.7153C8.76593 21.7153 8.2766 21.9174 7.91521 22.2774L3.21554 26.9771C3.10768 27.0848 3.04701 27.231 3.04688 27.3834V28.5832C3.04688 31.6116 4.33104 32.8958 7.35938 32.8958H30.3594C33.3877 32.8958 34.6719 31.6116 34.6719 28.5832V23.5501C34.6717 23.3976 34.6111 23.2515 34.5032 23.1437Z" fill="#CB1B5B"/>
<path d="M11.1935 15.6444C10.8789 15.6456 10.5671 15.5847 10.276 15.4654C9.98492 15.346 9.72017 15.1705 9.4969 14.9488C9.04598 14.5011 8.79137 13.8927 8.78908 13.2572C8.78679 12.6218 9.03701 12.0115 9.4847 11.5606C9.93239 11.1097 10.5409 10.8551 11.1763 10.8528H11.1935C11.829 10.8528 12.4383 11.1052 12.8876 11.5545C13.337 12.0038 13.5894 12.6132 13.5894 13.2486C13.5894 13.884 13.337 14.4934 12.8876 14.9427C12.4383 15.392 11.829 15.6444 11.1935 15.6444Z" fill="#CB1B5B"/>
<path d="M37.1284 3.60833L34.2534 0.733332C33.9836 0.464603 33.6184 0.313721 33.2376 0.313721C32.8568 0.313721 32.4915 0.464603 32.2217 0.733332L29.3467 3.60833C29.0928 3.88083 28.9546 4.24126 28.9612 4.61367C28.9677 4.98608 29.1186 5.3414 29.382 5.60477C29.6453 5.86815 30.0007 6.01901 30.3731 6.02558C30.7455 6.03216 31.1059 5.89392 31.3784 5.64L31.8001 5.22025V9.41583C31.8001 9.79708 31.9515 10.1627 32.2211 10.4323C32.4907 10.7019 32.8563 10.8533 33.2376 10.8533C33.6188 10.8533 33.9845 10.7019 34.254 10.4323C34.5236 10.1627 34.6751 9.79708 34.6751 9.41583V5.22025L35.0967 5.64C35.3692 5.89392 35.7297 6.03216 36.1021 6.02558C36.4745 6.01901 36.8298 5.86815 37.0932 5.60477C37.3566 5.3414 37.5074 4.98608 37.514 4.61367C37.5206 4.24126 37.3823 3.88083 37.1284 3.60833Z" fill="#CB1B5B"/>
</svg>
