<svg width="13" height="23" viewBox="0 0 13 23" fill="none" xmlns="http://www.w3.org/2000/svg">
<path fill-rule="evenodd" clip-rule="evenodd" d="M9.94193 4.0404C10.6223 4.0124 11.3165 4.0404 11.9968 4.0404C12.0801 4.0404 12.1634 4.0404 12.2745 4.0404V0.442271C11.9135 0.40027 11.5248 0.358268 11.136 0.330267C10.4279 0.302266 9.71977 0.260265 9.02555 0.274265C7.94257 0.302266 6.929 0.568276 6.0404 1.1983C5.02683 1.94033 4.45757 2.97636 4.2493 4.20841C4.166 4.71243 4.13823 5.24444 4.12434 5.74846C4.11046 6.56049 4.12434 7.35852 4.12434 8.17055V8.47856H0.722656V12.4967H4.12434V22.6051H8.27579V12.5107H11.6636C11.8441 11.1667 12.0107 9.85061 12.1912 8.46456C11.9135 8.46456 11.6775 8.46456 11.4276 8.46456C10.4695 8.46456 8.24802 8.46456 8.24802 8.46456C8.24802 8.46456 8.26191 6.47649 8.27579 5.60846C8.30356 4.43242 9.01167 4.0824 9.94193 4.0404Z" fill="#1773EA"/>
</svg>
