<svg width="21" height="22" viewBox="0 0 21 22" fill="none" xmlns="http://www.w3.org/2000/svg">
<path d="M20.6166 5.49638C20.4753 4.12876 19.9572 2.91834 18.9368 1.94372C17.8693 0.921939 16.5663 0.466067 15.122 0.387468C12.6729 0.261711 6.88004 0.167392 4.83918 0.497506C2.51574 0.874779 0.992961 2.24239 0.349306 4.53747C-0.153059 6.3138 -0.0431777 14.4723 0.239403 16.2172C0.631875 18.6066 2.04478 20.1472 4.41532 20.7602C6.048 21.1847 14.1015 21.1218 15.9226 20.8388C18.3088 20.4458 19.8473 19.0468 20.4753 16.6731C20.962 14.8653 20.7893 7.14695 20.6166 5.49638ZM18.717 15.9028C18.4344 17.7263 17.2413 18.8424 15.4045 19.0468C13.7248 19.2354 6.25209 19.3297 4.6979 18.8896C3.2065 18.4809 2.35876 17.4434 2.10758 15.95C1.87209 14.5195 1.8093 7.36702 2.10758 5.44922C2.37446 3.64145 3.58327 2.52535 5.40434 2.32099C7.24111 2.11664 13.8661 2.0852 15.6243 2.36815C17.4297 2.65111 18.56 3.86153 18.7641 5.68501C18.9368 7.38274 18.9839 14.0636 18.717 15.9028ZM10.4123 5.3549C7.4766 5.3549 5.09037 7.7443 5.07467 10.6839C5.07467 13.6235 7.4609 16.0129 10.3966 16.0286C13.3323 16.0286 15.7185 13.6392 15.7342 10.6996C15.7342 7.7443 13.348 5.3549 10.4123 5.3549ZM10.3652 14.1265C8.46564 14.1108 6.92715 12.5545 6.95854 10.6524C6.97424 8.75036 8.52843 7.20983 10.428 7.24126C12.3276 7.25698 13.8661 8.81324 13.8347 10.7153C13.8347 12.6174 12.2648 14.1422 10.3652 14.1265ZM17.1942 5.15054C17.1942 5.84221 16.6291 6.3924 15.9383 6.3924C15.2476 6.3924 14.6981 5.82649 14.6981 5.13482C14.6981 4.44315 15.2633 3.89297 15.954 3.89297C16.6291 3.89297 17.1942 4.45887 17.1942 5.15054Z" fill="url(#paint0_linear_1_826)"/>
<defs>
<linearGradient id="paint0_linear_1_826" x1="10.3967" y1="0.271484" x2="10.3967" y2="21.0648" gradientUnits="userSpaceOnUse">
<stop stop-color="#514BD7"/>
<stop offset="0.213542" stop-color="#793CC7"/>
<stop offset="0.453125" stop-color="#E22372"/>
<stop offset="0.697917" stop-color="#F55244"/>
<stop offset="0.989583" stop-color="#FDC74B"/>
</linearGradient>
</defs>
</svg>
