<svg width="24" height="25" viewBox="0 0 24 25" fill="none" xmlns="http://www.w3.org/2000/svg">
<path d="M23.934 7.55204C23.8764 6.27422 23.67 5.39992 23.3771 4.63611C23.0698 3.84828 22.6618 3.17574 21.9944 2.51281C21.3271 1.84988 20.6598 1.43195 19.8724 1.1293C19.109 0.831465 18.2353 0.629704 16.9582 0.572058C15.6764 0.514412 15.2683 0.5 12.0132 0.5C8.75337 0.5 8.34529 0.514412 7.06823 0.572058C5.79118 0.629704 4.91741 0.836269 4.15405 1.1293C3.36189 1.43675 2.68976 1.84508 2.02723 2.51281C1.36469 3.18054 0.947011 3.84828 0.644551 4.63611C0.351692 5.39992 0.145251 6.27422 0.0876394 7.55204C0.0300279 8.83467 0.015625 9.243 0.015625 12.5C0.015625 15.7618 0.0300279 16.1701 0.0876394 17.448C0.145251 18.7258 0.351692 19.6001 0.644551 20.3639C0.951812 21.1517 1.35989 21.8243 2.02723 22.4872C2.68976 23.1549 3.36189 23.5681 4.14925 23.8707C4.9126 24.1685 5.78638 24.3703 7.06343 24.4279C8.34529 24.4856 8.75337 24.5 12.0084 24.5C15.2683 24.5 15.6764 24.4856 16.9534 24.4279C18.2305 24.3703 19.1042 24.1637 19.8676 23.8707C20.655 23.5633 21.3271 23.1549 21.9896 22.4872C22.6522 21.8195 23.0698 21.1517 23.3723 20.3639C23.67 19.6001 23.8716 18.7258 23.9292 17.448C23.9868 16.1653 24.0012 15.757 24.0012 12.5C24.0012 9.243 23.9916 8.82986 23.934 7.55204ZM21.7784 17.3519C21.7256 18.524 21.5287 19.1629 21.3655 19.5809C21.1495 20.1381 20.8854 20.5416 20.4629 20.9644C20.0404 21.3871 19.642 21.6417 19.0802 21.8675C18.6578 22.0308 18.0192 22.2278 16.8526 22.2806C15.5899 22.3383 15.2107 22.3527 12.0036 22.3527C8.79658 22.3527 8.4173 22.3383 7.15465 22.2806C5.98322 22.2278 5.34469 22.0308 4.92701 21.8675C4.3701 21.6513 3.96682 21.3871 3.54433 20.9644C3.12185 20.5416 2.8674 20.1429 2.64175 19.5809C2.47852 19.1581 2.28168 18.5192 2.22887 17.3519C2.17126 16.0885 2.15685 15.709 2.15685 12.5C2.15685 9.29103 2.17126 8.91153 2.22887 7.64812C2.28168 6.47598 2.47852 5.83707 2.64175 5.41914C2.85779 4.86189 3.12185 4.45837 3.54433 4.03563C3.96682 3.61289 4.36529 3.35829 4.92701 3.13251C5.34949 2.96918 5.98802 2.77222 7.15465 2.71938C8.4173 2.66173 8.79658 2.64732 12.0036 2.64732C15.2107 2.64732 15.5899 2.66173 16.8526 2.71938C18.024 2.77222 18.6626 2.96918 19.0802 3.13251C19.6371 3.34868 20.0404 3.61289 20.4629 4.03563C20.8854 4.45837 21.1399 4.85709 21.3655 5.41914C21.5287 5.84187 21.7256 6.48079 21.7784 7.64812C21.836 8.91153 21.8504 9.29103 21.8504 12.5C21.8504 15.709 21.8312 16.0885 21.7784 17.3519Z" fill="white"/>
<path d="M12.0043 6.33191C8.59559 6.33191 5.83984 9.09412 5.83984 12.5C5.83984 15.9108 8.6004 18.6682 12.0043 18.6682C15.4082 18.6682 18.1687 15.9012 18.1687 12.5C18.1687 9.08931 15.413 6.33191 12.0043 6.33191ZM12.0043 16.5016C9.79583 16.5016 8.00508 14.7098 8.00508 12.5C8.00508 10.2903 9.79583 8.49844 12.0043 8.49844C14.2127 8.49844 16.0035 10.2903 16.0035 12.5C16.0035 14.7098 14.2127 16.5016 12.0043 16.5016Z" fill="white"/>
<path d="M18.409 7.53282C19.2045 7.53282 19.8493 6.88759 19.8493 6.09167C19.8493 5.29574 19.2045 4.65051 18.409 4.65051C17.6136 4.65051 16.9688 5.29574 16.9688 6.09167C16.9688 6.88759 17.6136 7.53282 18.409 7.53282Z" fill="white"/>
<path d="M0 12.5C0 15.7618 0.0144029 16.1701 0.0720144 17.448C0.129626 18.7258 0.336067 19.6001 0.628926 20.3639C0.936187 21.1517 1.34427 21.8243 2.0116 22.4872C2.67413 23.1501 3.34627 23.5681 4.13363 23.8707C4.89698 24.1685 5.77075 24.3703 7.04781 24.4279C8.32967 24.4856 8.73775 24.5 11.9928 24.5C15.2527 24.5 15.6607 24.4856 16.9378 24.4279C18.2148 24.3703 19.0886 24.1637 19.852 23.8707C20.6393 23.5633 21.3115 23.1549 21.974 22.4872C22.6365 21.8243 23.0542 21.1517 23.3567 20.3639C23.6543 19.6001 23.856 18.7258 23.9136 17.448C23.9712 16.1653 23.9856 15.757 23.9856 12.5C23.9856 9.23819 23.9712 8.82986 23.9136 7.55204C23.856 6.27422 23.6495 5.39992 23.3567 4.63611C23.0494 3.84828 22.6413 3.17574 21.974 2.51281C21.3163 1.84508 20.6441 1.43195 19.8568 1.1293C19.0934 0.831465 18.2196 0.629704 16.9426 0.572058C15.6607 0.514412 15.2527 0.5 11.9976 0.5C8.73775 0.5 8.32967 0.514412 7.05261 0.572058C5.77555 0.629704 4.90178 0.836269 4.13843 1.1293C3.35107 1.43675 2.67894 1.84508 2.0164 2.51281C1.35387 3.18054 0.936187 3.84828 0.633727 4.63611C0.336067 5.39992 0.129626 6.27422 0.0720144 7.55204C0.0144029 8.82986 0 9.23819 0 12.5ZM2.16523 12.5C2.16523 9.29584 2.17964 8.91153 2.23725 7.64812C2.29006 6.47598 2.4869 5.83707 2.65013 5.41914C2.86617 4.86189 3.13023 4.45837 3.55271 4.03563C3.97519 3.61289 4.37367 3.35829 4.93539 3.13251C5.35787 2.96918 5.9964 2.77222 7.16303 2.71938C8.42568 2.66173 8.80496 2.64732 12.012 2.64732C15.219 2.64732 15.5983 2.66173 16.861 2.71938C18.0324 2.77222 18.6709 2.96918 19.0886 3.13251C19.6455 3.34868 20.0488 3.61289 20.4713 4.03563C20.8938 4.45837 21.1482 4.85709 21.3739 5.41914C21.5371 5.84187 21.7339 6.48079 21.7868 7.64812C21.8444 8.91153 21.8588 9.29103 21.8588 12.5C21.8588 15.709 21.8444 16.0885 21.7868 17.3519C21.7339 18.524 21.5371 19.1629 21.3739 19.5809C21.1578 20.1381 20.8938 20.5416 20.4713 20.9644C20.0488 21.3871 19.6503 21.6417 19.0886 21.8675C18.6661 22.0308 18.0276 22.2278 16.861 22.2806C15.5983 22.3383 15.219 22.3527 12.012 22.3527C8.80496 22.3527 8.42568 22.3383 7.16303 22.2806C5.9916 22.2278 5.35307 22.0308 4.93539 21.8675C4.37848 21.6513 3.97519 21.3871 3.55271 20.9644C3.13023 20.5416 2.87578 20.1429 2.65013 19.5809C2.4869 19.1581 2.29006 18.5192 2.23725 17.3519C2.17483 16.0885 2.16523 15.7042 2.16523 12.5Z" fill="white"/>
</svg>
