<svg width="20" height="21" viewBox="0 0 20 21" fill="none" xmlns="http://www.w3.org/2000/svg">
<path d="M0.315996 6.88368H4.45188V20.1984H0.315996V6.88368ZM2.39144 0.271484C3.71492 0.271484 4.78275 1.34088 4.78275 2.66633C4.78275 3.99178 3.71492 5.06118 2.39144 5.06118C1.06796 5.06118 0.000154793 3.99178 0.000154793 2.66633C-0.0148848 1.34088 1.06796 0.271484 2.39144 0.271484Z" fill="#2164F3"/>
<path d="M7.058 6.89179H11.0134V8.71428H11.0736C11.63 7.65995 12.9686 6.56042 14.9839 6.56042C19.1649 6.56042 19.9319 9.31676 19.9319 12.9015V20.2066H15.811V13.7299C15.811 12.1785 15.7809 10.2054 13.6604 10.2054C11.5097 10.2054 11.1788 11.8924 11.1788 13.6245V20.2066H7.04297V6.89179H7.058Z" fill="#2164F3"/>
</svg>
