<svg width="24" height="23" viewBox="0 0 24 23" fill="none" xmlns="http://www.w3.org/2000/svg">
<path d="M0 2.70218C0 1.92996 0.270278 1.2929 0.810811 0.790982C1.35134 0.289043 2.05406 0.0380859 2.91892 0.0380859C3.76835 0.0380859 4.45559 0.285175 4.9807 0.779399C5.52123 1.28905 5.79151 1.95313 5.79151 2.77168C5.79151 3.51299 5.52897 4.13073 5.00386 4.62496C4.46333 5.13461 3.7529 5.38944 2.87259 5.38944H2.84942C1.99999 5.38944 1.31275 5.13461 0.787645 4.62496C0.262541 4.11531 0 3.47437 0 2.70218ZM0.301158 22.9724V7.49755H5.44402V22.9724H0.301158ZM8.29344 22.9724H13.4363V14.3315C13.4363 13.791 13.4981 13.374 13.6216 13.0806C13.8378 12.5555 14.166 12.1114 14.6062 11.7485C15.0463 11.3856 15.5984 11.2041 16.2626 11.2041C17.9923 11.2041 18.8571 12.3701 18.8571 14.7022V22.9724H24V14.0999C24 11.8141 23.4595 10.0806 22.3784 8.89909C21.2973 7.71762 19.8687 7.12689 18.0927 7.12689C16.1004 7.12689 14.5483 7.98403 13.4363 9.69832V9.74465H13.4131L13.4363 9.69832V7.49755H8.29344C8.32432 7.99175 8.33977 9.52842 8.33977 12.1076C8.33977 14.6867 8.32432 18.3083 8.29344 22.9724Z" fill="white"/>
</svg>
